<svg xmlns="http://www.w3.org/2000/svg" width="362" height="281" fill="none"><style>.B{fill-rule:evenodd}.C{fill:#191847}</style><mask id="A" maskUnits="userSpaceOnUse" x="10" y="0" width="316" height="281" mask-type="alpha"><path d="M175.997.737c20.838-3.946 43.722 8.51 58.155 24.08C248.703 40.513 240.481 80.631 253 98c10.753 14.918 45.49-2.617 53.5 13.944 7.765 16.054-.008 43.401 0 61.242.009 19.967 24.068 23.142 18.5 42.314-5.719 19.691-45.818 49.127-64.5 57.5-19.288 8.645-48.5 14.5-62-8-10-29-22.147-47.323-39.5-49.5-17.731-2.224-37.159 50.286-53 42-17.763-9.291-41.472-15.088-56.054-28.858-16.727-15.796-38.21-32.483-39.857-55.456-1.66-23.159 20.345-40.887 31.492-61.242C51.093 94.576 55.788 73.5 71.364 61.298c15.347-12.023 31.267 9.764 48.136 0C138.806 50.124 154.091 4.885 175.997.737Z" fill="#c4c4c4" class="B"/></mask><g mask="url(#A)"><path fill="#f4f0f0" d="M-8-113h452v409H-8z"/><path d="m73 188 16 68.5 10.96 51.459h10.617L95.107 188H73Z" fill="#00102b" class="B"/><path d="M69 188c-.462 35.594 1.485 55.008 1 58.242s-1.22 23.806-15.39 61.717h11c18.039-36.369 19.109-56.942 21.21-61.717s-1.417-24.19 8.347-58.242H69z" fill="#002552" class="B"/><path d="m307.01 172.222-9.32 75.882-6.712 55.903-11.176 1.775-4.009-128.602 31.217-4.958Z" fill="#00102b" class="B"/><path d="M310.071 182.775c-12.705 35.685-18.313 55.634-19.024 59.039s-.994 26.628-.847 69.667l-11.001-4.046-7.381-72.693c-.335-5.538.363-27.294 3.195-64.862l35.058 12.895z" fill="#002552" class="B"/></g><g filter="url(#B)"><path d="M153.333 125a8.02 8.02 0 0 1-5.885-2.448 8.02 8.02 0 0 1-2.448-5.885V58.333a8.02 8.02 0 0 1 2.448-5.885A8.02 8.02 0 0 1 153.333 50h58.334a8.02 8.02 0 0 1 5.885 2.448A8.02 8.02 0 0 1 220 58.333v58.334a8.02 8.02 0 0 1-2.448 5.885 8.02 8.02 0 0 1-5.885 2.448h-58.334zm4.167-35.104 16.667-16.667 16.666 16.667L207.5 73.229l4.167 4.167V58.333h-58.334V85.73l4.167 4.167zm-4.167 26.771h58.334v-27.5L207.5 85l-16.667 16.667L174.167 85 157.5 101.667l-4.167-4.167v19.167zm0 0v-27.5V97.5 58.333v58.334z" fill="#002f66"/></g><g class="B"><path d="M86.4 79.678a13.9 13.9 0 0 0-13.898 13.898v11.736c0 6.962 5.12 12.729 11.8 13.741l.009.171h17.913c3.046-2.976-.397-23.164-2.543-29.854-.304-.947-.598-1.627-.887-2.09A13.896 13.896 0 0 0 86.4 79.678z" class="C"/><path d="M86.67 109.478c4 2.411 7.93 3.576 9.774 3.1 4.626-1.192 5.052-18.116 1.472-24.788s-21.98-9.58-22.908 3.64c-.322 4.587 1.605 8.682 4.45 12.023l-5.103 23.787H89.18l-2.51-17.762z" fill="#ae753f"/><path d="m73.047 91.507 1.26-1.206-.02-.48s4.652-9.526 11.805-9.526c7.147 0 9.407 3.323 11.328 6.147l.005.008c-1.004 3.448-4.033 4.843-7.458 6.42-1.475.68-3.023 1.392-4.514 2.318a3.397 3.397 0 1 0-1.986 6.032c.682 7.337.409 15.715-1.627 17.704H63.927c-.514-8.934 1.797-11.483 4.159-14.087 2.222-2.451 4.489-4.95 4.489-12.865l.471-.465z" class="C"/><path d="M49.382 222.673c.338-4.075-2.292-53.721-2.292-53.721l12.69-5.016-2.357 57.178c-.026 3.301 3.59 6.637 6.044 8.899l1.037.968c-1.527 1.559-2.812.926-4.168.257-1.53-.755-3.15-1.554-5.307.715-.833.876-1.577 1.816-2.304 2.734-2.51 3.171-4.817 6.085-9.88 5.231-.802-.135-2.101-1.333-.854-3.173 3.106-4.584 7.225-12.08 7.39-14.072zm85.307-58.165-24.385-4.555.664 11.706 21.444-1.167c7.882 3.488 11.89 4.599 12.023 3.332.113-1.068-.652-1.654-1.356-2.194-.548-.42-1.06-.813-1.093-1.383-.074-1.303 3.389-2.809 6.735-4.099s1.727-2.265.614-2.597c-4.226-.386-9.108-.067-14.646.957z" fill="#ae753f"/><path d="m79.625 124.317 9.16 2.006c-.195 17.992 10.63 31.111 38.889 31.785l.505 23.291c-26.32-1.283-47.805-13.817-49.092-38.638-.333-6.425-.377-13.063.538-18.444Z" fill="#abc7ff"/><path d="M35.465 216.488c3.425-39.521 15.942-71.103 37.55-94.747l1.02-.104.034-.003.01.009 16.475 1.999c7.183 12.427 6.525 23.963 5.903 34.89-.674 11.809-1.306 22.907 8.043 33.649H67.04c.106 6.833.454 13.826.992 20.985l-32.566 3.322Z" fill="#d7e2ff"/><path d="M67.031 191.622c-.196-14.273.67-27.845 3.073-40.764.561 13.497 2.035 30.16 5.767 39.862l-8.84.902Z" fill="#000" fill-opacity=".1"/><path d="M277.79 99.54c-4.561 2.301-8.946 3.252-10.923 2.588-4.958-1.666-4.076-20.091.364-27.056s24.77-8.653 24.732 5.787c-.014 5.011-2.444 9.307-5.818 12.71l3.682 26.259-16.192-1.185 4.155-19.103z" fill="#ffdbba"/><path d="M286.85 77.093c-9.348-.618-15.821-1.485-19.467-2.775.401-3.138 3.953-6.46 12.636-5.824 9.66.707 14.432 6.689 13.958 13.17-.434 5.92-4.792 12.852-7.73 12.932-.743-.22-1.322-1.173-1.872-2.468 1.244-.493 2.185-1.802 2.315-3.574.124-1.703-1.265-3.467-3.128-3.603a3.267 3.267 0 0 0-1.884.447c-1.081-2.051-2.508-3.629-4.666-3.626l1.644-3.93 8.145-.078.049-.671Z" class="C"/><path d="M313.538 211.686c-.984-4.359-5.161-57.036-5.161-57.036l-15.425-6.148 11.049 61.013c.51 3.515-3.193 6.835-5.704 9.086l-1.06.965c1.994 1.757 3.39 1.164 4.863.539 1.663-.706 3.423-1.453 6.249 1.099 1.092.985 2.09 2.033 3.065 3.057 3.369 3.536 6.464 6.784 12.202 6.198.91-.093 2.24-1.285.528-3.323-4.263-5.077-10.124-13.32-10.606-15.45zm-51.234-40.276 8.151-21.976 14.234 6.322-13.624 16.769c-.12 8.1-1.008 11.891-2.664 11.373-1.397-.437-1.695-1.345-1.969-2.181-.214-.652-.413-1.26-1.107-1.568-1.583-.703-5.428 1.353-8.936 3.422s-3.808.278-3.591-.787c1.917-3.609 5.085-7.401 9.506-11.374z" fill="#ffdbba"/><path d="m288.917 110.915-.205-.193-1.004-.073-.598.539-13.39 2.019c-7.934 14.888-6.196 21.867-4.119 30.208 1.889 7.589 4.06 16.305-.517 33.13l27.716 2.029a300.436 300.436 0 0 1-.281 10.541l17.558 1.285-1.873-15.263c-2.961-25.497-5.337-45.957-21.46-62.429a92.766 92.766 0 0 0-1.035-1.913l-.792.12z" fill="#d7e2ff"/><path d="M298.446 178.695c-.205-13.893-1.421-27.074-4.112-39.577-.172 13.147-1.142 29.402-4.499 38.946l8.611.631Z" fill="#000" fill-opacity=".1"/></g><defs><filter id="B" x="141" y="50" width="83" height="83" filterUnits="userSpaceOnUse" color-interpolation-filters="sRGB"><feFlood flood-opacity="0" result="A"/><feColorMatrix in="SourceAlpha" values="0 0 0 0 0 0 0 0 0 0 0 0 0 0 0 0 0 0 127 0" result="B"/><feOffset dy="4"/><feGaussianBlur stdDeviation="2"/><feComposite in2="B" operator="out"/><feColorMatrix values="0 0 0 0 0 0 0 0 0 0 0 0 0 0 0 0 0 0 0.25 0"/><feBlend in2="A"/><feBlend in="SourceGraphic"/></filter></defs></svg>